<?xml version="1.0" standalone="no"?>
<!DOCTYPE svg PUBLIC "-//W3C//DTD SVG 20010904//EN"
 "http://www.w3.org/TR/2001/REC-SVG-20010904/DTD/svg10.dtd">
<svg version="1.0" xmlns="http://www.w3.org/2000/svg"
 width="1000.000000pt" height="1000.000000pt" viewBox="0 0 1000.000000 1000.000000"
 preserveAspectRatio="xMidYMid meet">
<metadata>
Created by potrace 1.11, written by Peter Selinger 2001-2013
</metadata>
<g transform="translate(0.000000,1000.000000) scale(0.100000,-0.100000)"
fill="#000000" stroke="none">
<path d="M0 5000 l0 -5000 5000 0 5000 0 0 5000 0 5000 -5000 0 -5000 0 0
-5000z m6795 4343 c258 -58 466 -213 579 -433 70 -135 88 -204 93 -360 10
-277 -66 -590 -193 -791 -188 -299 -521 -580 -919 -774 -346 -170 -743 -278
-1243 -340 -212 -26 -282 -39 -282 -54 0 -5 18 -55 41 -112 22 -57 52 -133 66
-169 14 -36 43 -103 64 -148 22 -46 39 -86 39 -88 0 -5 150 -341 200 -448 l32
-69 252 7 c720 19 1540 64 2271 123 182 15 395 27 475 27 129 1 151 -2 203
-23 179 -71 308 -231 324 -401 12 -127 -54 -289 -161 -396 -130 -129 -198
-149 -570 -165 -581 -25 -1650 6 -2322 66 -203 18 -293 20 -306 7 -12 -12 4
-94 27 -147 18 -40 62 -255 79 -385 21 -160 10 -713 -14 -730 -4 -3 -10 -30
-13 -60 l-5 -55 13 55 c13 52 22 63 157 195 196 191 335 295 556 414 224 121
469 209 752 270 619 135 1218 56 1620 -212 311 -207 536 -521 654 -909 106
-353 95 -758 -31 -1122 -241 -694 -827 -1152 -1607 -1256 -120 -16 -482 -13
-616 5 -116 15 -291 56 -409 95 -159 53 -395 193 -591 351 -230 185 -565 551
-829 906 -25 35 -54 63 -63 63 -24 0 -55 -45 -132 -195 -85 -162 -208 -349
-316 -480 -128 -154 -323 -342 -415 -401 -337 -213 -491 -284 -758 -349 -201
-49 -305 -60 -582 -60 -278 0 -384 10 -570 52 -342 77 -783 426 -997 788 -202
342 -288 556 -345 857 -14 74 -17 148 -18 368 0 242 3 289 22 390 166 862 784
1432 1663 1531 151 17 518 14 678 -5 427 -51 830 -191 1133 -394 195 -131 429
-345 624 -571 l90 -103 7 43 c11 76 11 360 -1 469 -15 130 -44 327 -72 485
l-22 121 -36 16 c-52 24 -51 24 -321 58 -1195 150 -1950 302 -2620 527 -714
240 -1133 559 -1258 959 -66 211 -36 473 84 722 62 129 174 301 174 267 0 -4
-16 -41 -36 -83 -145 -309 -171 -422 -139 -602 42 -241 127 -376 332 -527 83
-62 266 -160 383 -206 36 -14 88 -35 116 -46 l52 -20 -34 56 c-96 160 -113
325 -51 497 38 102 106 186 193 238 16 10 47 31 69 48 96 71 277 94 412 52
216 -68 377 -303 359 -525 -13 -163 -85 -317 -193 -417 -35 -32 -63 -64 -63
-73 0 -9 -9 -19 -21 -22 -11 -4 -19 -9 -17 -11 17 -16 597 -91 878 -114 545
-43 868 -59 1192 -60 l227 0 -18 43 c-10 23 -27 62 -39 87 -100 222 -121 270
-306 740 -53 132 -61 147 -92 163 -20 9 -57 17 -87 17 -167 0 -501 49 -717
105 -217 57 -344 102 -489 175 -182 90 -309 177 -406 275 -130 131 -218 322
-246 530 -18 138 -1 367 30 398 8 8 11 -10 11 -64 0 -310 165 -634 380 -749
81 -44 226 -110 240 -110 6 0 -1 18 -15 40 -48 75 -77 186 -77 285 1 188 87
354 228 437 16 10 47 31 69 48 130 97 374 97 525 0 111 -71 212 -219 240 -352
10 -43 10 -83 2 -174 -13 -135 -30 -177 -113 -287 -28 -37 -49 -73 -46 -80 2
-6 -3 -21 -12 -31 -16 -18 -13 -19 124 -12 127 6 316 23 321 29 2 1 -1 34 -6
72 -7 50 -5 115 6 225 48 491 166 814 404 1105 81 99 281 289 391 372 370 278
860 477 1264 513 123 11 355 2 440 -17z"/>
<path d="M6015 8521 c-221 -26 -519 -149 -776 -320 -242 -161 -321 -243 -388
-405 -36 -86 -76 -246 -90 -356 -10 -81 -8 -210 3 -228 3 -6 30 -13 59 -17 45
-5 72 0 197 40 285 92 604 232 785 345 186 116 406 316 509 462 46 65 177 333
191 391 6 22 4 27 -12 27 -10 0 -27 6 -38 14 -52 36 -302 62 -440 47z"/>
<path d="M3275 7948 c-65 -19 -73 -24 -113 -78 -76 -104 -83 -137 -57 -261 22
-102 60 -182 110 -228 48 -44 95 -61 173 -61 64 0 105 16 194 77 109 74 144
144 136 268 -6 88 -33 141 -108 208 -59 53 -162 97 -223 96 -23 0 -73 -10
-112 -21z"/>
<path d="M2035 6698 c-65 -19 -73 -24 -113 -78 -76 -104 -83 -137 -57 -261 22
-102 60 -182 110 -228 48 -44 95 -61 173 -61 64 0 105 16 194 77 109 74 144
144 136 268 -6 88 -33 141 -108 208 -59 53 -162 97 -223 96 -23 0 -73 -10
-112 -21z"/>
<path d="M7115 4194 c-624 -64 -1071 -270 -1496 -689 -129 -128 -146 -154
-127 -191 14 -25 171 -266 453 -692 302 -456 511 -705 735 -874 107 -80 276
-171 385 -207 154 -50 260 -65 465 -65 178 0 205 2 315 28 154 36 236 66 365
132 417 216 657 608 677 1111 19 481 -165 898 -509 1154 -95 70 -324 188 -435
223 -186 58 -259 68 -533 71 -140 1 -273 1 -295 -1z"/>
<path d="M2630 3903 c-82 -8 -241 -47 -310 -76 -162 -67 -299 -171 -402 -307
-64 -84 -150 -260 -183 -375 -57 -199 -68 -367 -35 -580 54 -347 165 -582 375
-791 287 -285 743 -427 1240 -385 359 30 640 141 914 361 229 184 432 431 608
742 l55 98 -28 38 c-193 252 -479 562 -643 696 -221 180 -591 396 -812 474
-233 82 -566 127 -779 105z"/>
</g>
</svg>
